<svg width="130" height="132" viewBox="0 0 130 132" fill="none" xmlns="http://www.w3.org/2000/svg">
<path fill-rule="evenodd" clip-rule="evenodd" d="M65 0.921875C29.1015 0.921875 0 30.0481 0 65.9772C0 101.906 29.1015 131.032 65 131.032C100.899 131.032 130 101.906 130 65.9772C130 30.0481 100.899 0.921875 65 0.921875ZM40.3681 29.1125H91.7986C96.1356 29.1125 99.6667 32.6038 99.6667 36.93V105.01L91.4148 97.8001L86.7707 93.5498L81.8579 89.0339L83.8921 96.0544H40.3681C36.031 96.0544 32.5 92.5631 32.5 88.2369V36.93C32.5 32.6038 36.031 29.1125 40.3681 29.1125Z" fill="#5760F9"/>
<path fill-rule="evenodd" clip-rule="evenodd" d="M76.9836 78.6738C76.9836 78.6738 75.6018 77.042 74.4504 75.5999C79.4783 74.1958 81.3974 71.084 81.3974 71.084C79.8237 72.1086 78.3269 72.8296 76.9836 73.323C75.0645 74.1199 73.2222 74.6512 71.4183 74.9548C67.7337 75.6379 64.3562 75.4481 61.4776 74.9168C59.2899 74.4994 57.4093 73.8922 55.8356 73.285C54.9529 72.9435 53.9934 72.5261 53.0338 71.9948C52.9763 71.9568 52.9187 71.9284 52.8611 71.8999C52.8036 71.8714 52.746 71.843 52.6884 71.805C52.6116 71.7671 52.5733 71.7291 52.5349 71.6912C51.844 71.3117 51.4602 71.046 51.4602 71.046C51.4602 71.046 53.3025 74.082 58.1769 75.524C57.0255 76.9661 55.6054 78.6738 55.6054 78.6738C47.1232 78.4081 43.8992 72.9055 43.8992 72.9055C43.8992 60.686 49.426 50.7813 49.426 50.7813C54.9529 46.6829 60.2111 46.7967 60.2111 46.7967L60.5949 47.2521C53.6863 49.2254 50.5007 52.2234 50.5007 52.2234C50.5007 52.2234 51.3451 51.768 52.7652 51.1229C56.8719 49.3393 60.1343 48.8459 61.4776 48.7321L61.5637 48.7177C61.7573 48.6851 61.9291 48.6562 62.1301 48.6562C64.4714 48.3526 67.1196 48.2767 69.8831 48.5803C73.5293 48.9977 77.4441 50.0603 81.4357 52.2234C81.4357 52.2234 78.4036 49.3772 71.8789 47.4039L72.4162 46.7967C72.4162 46.7967 77.6744 46.6829 83.2013 50.7813C83.2013 50.7813 88.7281 60.686 88.7281 72.9055C88.7281 72.9055 85.4657 78.4081 76.9836 78.6738ZM60.2174 61.6402C58.0469 61.6402 56.3334 63.5938 56.3334 65.9772C56.3334 68.3606 58.085 70.3142 60.2174 70.3142C62.3878 70.3142 64.1014 68.3606 64.1014 65.9772C64.1395 63.5938 62.3878 61.6402 60.2174 61.6402ZM70.232 65.9772C70.232 63.5938 71.9455 61.6402 74.116 61.6402C76.2865 61.6402 78 63.5938 78 65.9772C78 68.3606 76.2865 70.3142 74.116 70.3142C71.9836 70.3142 70.232 68.3606 70.232 65.9772Z" fill="#5760F9"/>
</svg>
