<svg width="130" height="132" viewBox="0 0 130 132" fill="none" xmlns="http://www.w3.org/2000/svg">
<path fill-rule="evenodd" clip-rule="evenodd" d="M0 65.9772C0 101.906 29.1015 131.032 65 131.032C100.899 131.032 130 101.906 130 65.9772C130 30.0481 100.899 0.921875 65 0.921875C29.1015 0.921875 0 30.0481 0 65.9772ZM101.837 54.339C107.809 54.339 112.667 59.1801 112.667 65.1301C112.667 69.064 110.534 72.501 107.374 74.383C107.504 75.2818 107.574 76.1902 107.574 77.109C107.574 92.4533 88.8752 104.938 65.8927 104.938C42.9081 104.938 24.2113 92.4533 24.2113 77.109C24.2113 76.1184 24.2928 75.1394 24.4442 74.1731C21.4734 72.2489 19.5 68.9184 19.5 65.1301C19.5 59.1801 24.3574 54.34 30.3296 54.339C32.9827 54.339 35.4167 55.3011 37.3022 56.8877C44.493 52.3546 54.0881 49.5083 64.6646 49.3016L70.8486 29.8251C71.1736 28.7891 72.2514 28.1804 73.3122 28.4283L89.3273 32.1829C90.7608 29.1362 93.8597 27.0147 97.455 27.0147C102.403 27.0147 106.432 31.0267 106.432 35.9596C106.432 40.8926 102.405 44.9045 97.455 44.9045C92.6051 44.9045 88.6529 41.0508 88.493 36.2582L74.2407 32.914L69.017 49.3659C78.9509 49.8607 87.9213 52.6869 94.7066 57.0301C96.6134 55.3612 99.1056 54.339 101.837 54.339Z" fill="url(#paint0_linear_69_402)"/>
<path d="M106.232 70.0979C104.708 66.1894 101.935 62.6141 98.2217 59.5685C99.2635 58.8923 100.504 58.4956 101.838 58.4956C105.51 58.4956 108.496 61.4716 108.496 65.1302C108.494 67.1082 107.616 68.8826 106.232 70.0979Z" fill="url(#paint1_linear_69_402)"/>
<path d="M97.455 31.1733C100.105 31.1733 102.26 33.3223 102.26 35.9628C102.26 38.6034 100.105 40.7512 97.455 40.7512C94.804 40.7512 92.6484 38.6034 92.6484 35.9628C92.6484 33.3223 94.804 31.1733 97.455 31.1733Z" fill="url(#paint2_linear_69_402)"/>
<path fill-rule="evenodd" clip-rule="evenodd" d="M65.8927 100.782C86.5736 100.782 103.403 90.1619 103.403 77.1111C103.403 76.6712 103.381 76.2365 103.344 75.8008C103.223 74.4104 102.901 73.0527 102.415 71.734C101.182 68.4056 98.843 65.3442 95.6436 62.7184C94.5828 61.8459 93.4309 61.021 92.1911 60.2519C85.4196 56.0416 76.1294 53.438 65.8927 53.438C55.8022 53.438 46.6358 55.9699 39.8865 60.0747C38.65 60.8269 37.4949 61.6328 36.4288 62.4863C33.097 65.1522 30.6577 68.279 29.3862 71.6865C28.896 73.001 28.5742 74.3577 28.4482 75.7449C28.408 76.1975 28.3826 76.6511 28.3826 77.1111C28.3826 90.1629 45.2087 100.782 65.8927 100.782ZM52.1761 65.6628C55.6942 65.6628 58.5463 68.6029 58.5463 72.1075C58.5463 75.6109 55.6942 78.4519 52.1761 78.4561C48.6601 78.4561 45.7095 75.6109 45.7095 72.1075C45.7095 68.6029 48.659 65.6628 52.1761 65.6628ZM80.0869 65.6606C76.5699 65.6606 73.6108 68.5997 73.6108 72.1043C73.6108 75.6099 76.5699 78.453 80.0869 78.453C83.605 78.453 86.4593 75.612 86.4593 72.1043C86.4572 68.5976 83.605 65.6606 80.0869 65.6606ZM66.132 90.9826C71.9539 90.9826 75.9272 89.8422 78.2871 87.4939C79.1033 86.6837 80.4246 86.6837 81.2409 87.496C82.055 88.3062 82.055 89.6207 81.2388 90.434C78.0584 93.5989 73.1163 95.1402 66.132 95.1402C66.1229 95.1402 66.1143 95.1386 66.1058 95.1369C66.0976 95.1354 66.0895 95.1339 66.0812 95.1339C66.0728 95.1339 66.065 95.1354 66.0571 95.1369C66.0489 95.1386 66.0406 95.1402 66.0314 95.1402C59.0461 95.1402 54.105 93.5989 50.9279 90.4319C50.1126 89.6228 50.1126 88.3073 50.9279 87.4939C51.742 86.6816 53.0633 86.6816 53.8774 87.4939C56.2341 89.8422 60.2085 90.9826 66.0314 90.9826C66.0484 90.9826 66.0632 90.9879 66.0812 90.9879C66.0895 90.9879 66.0976 90.9866 66.1058 90.9853C66.1143 90.984 66.1229 90.9826 66.132 90.9826Z" fill="url(#paint3_linear_69_402)"/>
<path d="M23.6714 65.1302C23.6714 61.4727 26.658 58.4956 30.3286 58.4956C31.5683 58.4956 32.7266 58.8427 33.7228 59.4345C30.0078 62.4422 27.2276 65.9815 25.6596 69.85C24.4326 68.6463 23.6714 66.9764 23.6714 65.1302Z" fill="url(#paint4_linear_69_402)"/>
<defs>
<linearGradient id="paint0_linear_69_402" x1="65" y1="0.921875" x2="65" y2="131.032" gradientUnits="userSpaceOnUse">
<stop stop-color="#FA7819"/>
<stop offset="1" stop-color="#EF111F"/>
</linearGradient>
<linearGradient id="paint1_linear_69_402" x1="103.359" y1="58.4956" x2="103.359" y2="70.0979" gradientUnits="userSpaceOnUse">
<stop stop-color="#FA7819"/>
<stop offset="1" stop-color="#EF111F"/>
</linearGradient>
<linearGradient id="paint2_linear_69_402" x1="97.4545" y1="31.1733" x2="97.4545" y2="40.7512" gradientUnits="userSpaceOnUse">
<stop stop-color="#FA7819"/>
<stop offset="1" stop-color="#EF111F"/>
</linearGradient>
<linearGradient id="paint3_linear_69_402" x1="65.8927" y1="53.438" x2="65.8927" y2="100.782" gradientUnits="userSpaceOnUse">
<stop stop-color="#FA7819"/>
<stop offset="1" stop-color="#EF111F"/>
</linearGradient>
<linearGradient id="paint4_linear_69_402" x1="28.6971" y1="58.4956" x2="28.6971" y2="69.85" gradientUnits="userSpaceOnUse">
<stop stop-color="#FA7819"/>
<stop offset="1" stop-color="#EF111F"/>
</linearGradient>
</defs>
</svg>
