<svg width="130" height="132" viewBox="0 0 130 132" fill="none" xmlns="http://www.w3.org/2000/svg">
<path fill-rule="evenodd" clip-rule="evenodd" d="M65 0.921875C29.1015 0.921875 0 30.0481 0 65.9772C0 101.906 29.1015 131.032 65 131.032C100.899 131.032 130 101.906 130 65.9772C130 30.0481 100.899 0.921875 65 0.921875ZM63.1897 56.0507L63.0533 53.7996C62.6441 47.9652 66.2359 42.6362 71.9192 40.5689C74.0106 39.8339 77.557 39.742 79.8757 40.3851C80.7851 40.6608 82.5128 41.5796 83.7404 42.4065L85.9682 43.9225L88.4234 43.1415C89.7874 42.7281 91.606 42.039 92.4244 41.5796C93.1973 41.1661 93.8793 40.9364 93.8793 41.0742C93.8793 41.8552 92.1971 44.5197 90.7876 45.9898C88.878 48.0571 89.4236 48.2409 93.2883 46.8627C95.607 46.0817 95.6525 46.0817 95.1978 46.9546C94.925 47.414 93.5156 49.0219 92.0152 50.4919C89.4691 53.0187 89.3327 53.2943 89.3327 55.4075C89.3327 58.6693 87.7868 65.4684 86.241 69.1895C83.3766 76.1724 77.2387 83.385 71.1008 87.0143C62.4622 92.1136 50.9593 93.3999 41.275 90.4138C38.0469 89.4031 32.5 86.8305 32.5 86.3711C32.5 86.2333 34.1822 86.0495 36.2282 86.0036C40.502 85.9117 44.7759 84.7173 48.4132 82.604L50.8683 81.1339L48.0494 80.1692C44.0484 78.791 40.4566 75.6211 39.5473 72.635C39.2745 71.6703 39.3654 71.6244 41.9115 71.6244L44.5485 71.5784L42.3207 70.5218C39.6837 69.1895 37.2739 66.9385 36.0918 64.6415C35.228 62.9876 34.1368 58.8071 34.455 58.4855C34.546 58.3477 35.5008 58.6233 36.592 58.9909C39.7291 60.1394 40.1383 59.8637 38.3197 57.9342C34.9097 54.4428 33.864 49.2516 35.5008 44.336L36.2737 42.1309L39.2745 45.117C45.4124 51.1351 52.6415 54.7184 60.9164 55.7751L63.1897 56.0507Z" fill="#1D9BF2"/>
</svg>
