<svg width="130" height="132" viewBox="0 0 130 132" fill="none" xmlns="http://www.w3.org/2000/svg">
<path fill-rule="evenodd" clip-rule="evenodd" d="M0 65.9772C0 101.906 29.1015 131.032 65 131.032C100.899 131.032 130 101.906 130 65.9772C130 30.0481 100.899 0.921875 65 0.921875C29.1015 0.921875 0 30.0481 0 65.9772ZM53.0833 95.7942L54.1893 79.2112L54.1883 79.2105L84.3292 51.9876C85.652 50.8126 84.0403 50.2396 82.2843 51.3054L45.0864 74.793L29.0189 69.7739C25.5491 68.7105 25.5241 66.3241 29.7979 64.6085L92.4092 40.4453C95.2688 39.1459 98.0289 41.1327 96.9372 45.5132L86.2745 95.8026C85.5299 99.3763 83.3725 100.231 80.3833 98.5802L64.1407 86.5697L56.3333 94.1678C56.3087 94.1918 56.2842 94.2156 56.2599 94.2394C55.3867 95.0902 54.6642 95.7942 53.0833 95.7942Z" fill="#259BD8"/>
</svg>
